<svg width="39" height="39" viewBox="0 0 39 39" fill="none" xmlns="http://www.w3.org/2000/svg">
<path d="M19.4676 15.3332C17.1676 15.3332 15.3009 17.1998 15.3009 19.4998C15.3009 21.7998 17.1676 23.6665 19.4676 23.6665C21.7676 23.6665 23.6343 21.7998 23.6343 19.4998C23.6343 17.1998 21.7676 15.3332 19.4676 15.3332ZM19.4676 11.1665C14.8676 11.1665 11.1343 14.8998 11.1343 19.4998C11.1343 24.0998 14.8676 27.8332 19.4676 27.8332C24.0676 27.8332 27.8009 24.0998 27.8009 19.4998C27.8009 14.8998 24.0676 11.1665 19.4676 11.1665ZM19.4676 26.1665C15.7843 26.1665 12.8009 23.1832 12.8009 19.4998C12.8009 15.8165 15.7843 12.8332 19.4676 12.8332C23.1509 12.8332 26.1343 15.8165 26.1343 19.4998C26.1343 23.1832 23.1509 26.1665 19.4676 26.1665Z" fill="#1262AE"/>
</svg>
